<?xml version="1.0" standalone="no"?>
<!DOCTYPE svg PUBLIC "-//W3C//DTD SVG 20010904//EN"
 "http://www.w3.org/TR/2001/REC-SVG-20010904/DTD/svg10.dtd">
<svg version="1.0" xmlns="http://www.w3.org/2000/svg"
 width="482.000000pt" height="482.000000pt" viewBox="0 0 482.000000 482.000000"
 preserveAspectRatio="xMidYMid meet">
<metadata>
Created by potrace 1.11, written by Peter Selinger 2001-2013
</metadata>
<g transform="translate(0.000000,482.000000) scale(0.100000,-0.100000)"
fill="#000000" stroke="none">
<path d="M3457 4544 c-1 -1 -58 -5 -127 -9 -69 -3 -132 -8 -140 -10 -8 -2 -53
-7 -100 -10 -47 -3 -92 -8 -100 -10 -8 -2 -40 -6 -70 -10 -30 -3 -71 -8 -90
-10 -19 -3 -53 -7 -75 -10 -22 -2 -103 -13 -180 -24 -77 -11 -158 -22 -180
-25 -22 -3 -85 -12 -140 -20 -55 -8 -121 -17 -147 -20 -46 -6 -74 -10 -153
-21 -22 -3 -58 -8 -80 -10 -22 -3 -51 -7 -65 -10 -14 -2 -50 -7 -80 -10 -30
-4 -84 -11 -120 -16 -36 -6 -76 -12 -90 -14 -109 -14 -381 -61 -450 -76 -25
-6 -56 -13 -70 -15 -157 -29 -448 -112 -523 -151 -124 -62 -220 -160 -284
-288 -66 -130 -84 -274 -58 -445 8 -47 16 -107 19 -135 4 -27 9 -62 11 -77 5
-25 3 -27 -42 -33 -74 -10 -76 -11 -69 -48 3 -17 8 -54 11 -82 3 -27 8 -61 10
-75 3 -14 7 -42 10 -62 11 -82 14 -106 25 -188 6 -47 13 -95 15 -106 2 -12 9
-65 15 -119 l13 -96 49 5 c27 3 53 8 58 11 10 6 16 -12 25 -80 3 -27 8 -66 11
-85 5 -35 13 -94 19 -140 11 -77 14 -100 20 -151 8 -62 0 -58 95 -44 25 3 59
8 75 10 46 6 187 26 215 30 14 2 48 7 75 10 28 3 61 7 75 10 23 4 135 18 235
31 22 2 51 7 65 9 14 3 45 7 69 10 23 3 55 7 70 9 14 3 49 7 76 11 184 24 222
23 205 -4 -6 -10 -26 -14 -67 -13 -32 0 -65 -3 -73 -8 -11 -7 -16 -34 -19 -95
-4 -113 5 -125 98 -125 61 0 67 -2 67 -21 l0 -21 -281 8 c-502 13 -510 13
-583 -24 -69 -35 -132 -95 -164 -157 -54 -104 -148 -515 -173 -755 -4 -36 -9
-78 -11 -95 -15 -125 -25 -507 -16 -605 l4 -40 1807 0 1806 0 5 67 c7 112 5
552 -3 638 -21 231 -21 225 -3 225 10 0 15 -4 12 -8 -3 -5 1 -9 9 -9 8 0 12 4
9 9 -3 4 4 8 14 8 40 0 43 65 6 110 -26 30 -26 32 -8 46 11 7 37 28 58 44 22
17 45 29 52 26 122 -47 291 -34 404 32 101 59 190 172 221 282 16 56 20 166 9
216 -7 30 -5 40 8 50 14 10 14 16 4 39 l-12 27 -33 -24 c-17 -14 -67 -51 -109
-82 -43 -32 -78 -60 -78 -63 0 -2 7 -15 16 -29 23 -35 11 -98 -31 -159 -59
-85 -138 -125 -240 -121 -84 3 -138 31 -146 75 -9 45 -38 83 -77 101 -23 11
-33 24 -38 48 -8 41 2 136 18 166 44 86 142 153 228 157 75 4 100 0 100 -15 0
-7 6 -19 14 -26 12 -9 22 -7 48 12 18 13 35 25 38 28 3 3 35 28 73 55 37 27
67 53 67 57 0 5 -5 17 -12 27 -10 17 -14 17 -33 5 -18 -12 -25 -11 -57 6 -133
71 -332 62 -463 -22 -64 -41 -124 -106 -161 -173 -38 -69 -68 -189 -60 -241 5
-27 1 -36 -20 -53 l-26 -20 -32 23 c-46 35 -106 63 -151 70 -22 4 -114 8 -205
11 -145 3 -368 10 -690 20 -52 2 -155 4 -227 4 l-133 1 0 35 0 35 61 0 c95 0
99 5 99 110 0 104 -9 119 -73 118 -79 -1 -87 1 -87 20 0 15 9 18 66 16 82 -2
94 9 94 82 0 66 11 69 75 19 143 -109 404 -147 686 -100 25 4 164 24 209 31
14 2 50 6 80 9 30 3 62 8 70 10 8 2 42 7 75 10 64 7 137 34 168 63 34 30 59
92 60 150 2 61 -5 56 92 67 28 3 61 8 75 10 14 3 48 7 75 10 28 3 57 8 65 10
8 2 40 7 70 10 30 3 82 10 115 15 33 5 80 12 105 15 94 12 120 17 120 24 0 4
-6 52 -14 107 -8 54 -18 122 -21 149 -4 28 -13 93 -20 145 -13 101 -11 108 33
111 12 1 27 3 32 4 6 1 17 3 26 4 13 1 15 9 10 39 -7 43 -8 47 -40 282 -13 96
-32 235 -42 309 l-17 133 -59 -5 c-32 -3 -60 -2 -62 2 -2 3 -7 29 -10 56 -16
150 -39 288 -57 345 -57 182 -198 336 -371 406 -106 44 -178 53 -386 52 -106
-1 -194 -3 -195 -4z"/>
</g>
</svg>
